<mxfile host="app.diagrams.net" modified="2020-10-22T15:26:56.868Z" agent="5.0 (Windows)" etag="RE5TeK0cq7HS3lRlhrfM" version="13.8.1" type="github" pages="2">
  <diagram id="LQlHrmRZi087rSzwUS9f" name="Phil">
    <mxGraphModel dx="2272" dy="773" grid="1" gridSize="10" guides="1" tooltips="1" connect="1" arrows="1" fold="1" page="1" pageScale="1" pageWidth="850" pageHeight="1100" math="0" shadow="0">
      <root>
        <mxCell id="0" />
        <mxCell id="1" parent="0" />
        <mxCell id="A_EFe26jHxkVhjVEouuX-1" value="&lt;div&gt;Develop a Game&lt;/div&gt;" style="square;whiteSpace=wrap;html=1;" parent="1" vertex="1">
          <mxGeometry x="360" y="30" width="120" height="50" as="geometry" />
        </mxCell>
        <mxCell id="A_EFe26jHxkVhjVEouuX-2" value="" style="endArrow=classic;html=1;exitX=0;exitY=0.5;exitDx=0;exitDy=0;entryX=1;entryY=1;entryDx=0;entryDy=0;" parent="1" source="A_EFe26jHxkVhjVEouuX-1" target="A_EFe26jHxkVhjVEouuX-3" edge="1">
          <mxGeometry width="50" height="50" relative="1" as="geometry">
            <mxPoint x="320" y="70" as="sourcePoint" />
            <mxPoint x="260" y="180" as="targetPoint" />
          </mxGeometry>
        </mxCell>
        <mxCell id="A_EFe26jHxkVhjVEouuX-3" value="Learn in/outs of github" style="square;whiteSpace=wrap;html=1;" parent="1" vertex="1">
          <mxGeometry width="120" height="50" as="geometry" />
        </mxCell>
        <mxCell id="A_EFe26jHxkVhjVEouuX-4" value="" style="endArrow=classic;html=1;exitX=0;exitY=1;exitDx=0;exitDy=0;entryX=1;entryY=0;entryDx=0;entryDy=0;" parent="1" source="A_EFe26jHxkVhjVEouuX-1" target="A_EFe26jHxkVhjVEouuX-5" edge="1">
          <mxGeometry width="50" height="50" relative="1" as="geometry">
            <mxPoint x="330" y="120" as="sourcePoint" />
            <mxPoint x="340" y="190" as="targetPoint" />
          </mxGeometry>
        </mxCell>
        <mxCell id="rkaj9FJLYy9ZAXitsgkI-21" value="" style="edgeStyle=orthogonalEdgeStyle;curved=0;rounded=1;sketch=0;orthogonalLoop=1;jettySize=auto;html=1;" edge="1" parent="1" source="A_EFe26jHxkVhjVEouuX-5" target="rkaj9FJLYy9ZAXitsgkI-20">
          <mxGeometry relative="1" as="geometry" />
        </mxCell>
        <mxCell id="rkaj9FJLYy9ZAXitsgkI-25" value="" style="edgeStyle=orthogonalEdgeStyle;curved=0;rounded=1;sketch=0;orthogonalLoop=1;jettySize=auto;html=1;" edge="1" parent="1" source="A_EFe26jHxkVhjVEouuX-5" target="rkaj9FJLYy9ZAXitsgkI-24">
          <mxGeometry relative="1" as="geometry" />
        </mxCell>
        <mxCell id="A_EFe26jHxkVhjVEouuX-5" value="How to deploy game" style="square;whiteSpace=wrap;html=1;" parent="1" vertex="1">
          <mxGeometry x="80" y="120" width="120" height="60" as="geometry" />
        </mxCell>
        <mxCell id="A_EFe26jHxkVhjVEouuX-6" value="" style="endArrow=classic;html=1;exitX=0.5;exitY=1;exitDx=0;exitDy=0;" parent="1" source="A_EFe26jHxkVhjVEouuX-1" target="A_EFe26jHxkVhjVEouuX-7" edge="1">
          <mxGeometry width="50" height="50" relative="1" as="geometry">
            <mxPoint x="400" y="420" as="sourcePoint" />
            <mxPoint x="420" y="270" as="targetPoint" />
          </mxGeometry>
        </mxCell>
        <mxCell id="rkaj9FJLYy9ZAXitsgkI-19" value="" style="edgeStyle=orthogonalEdgeStyle;curved=0;rounded=1;sketch=0;orthogonalLoop=1;jettySize=auto;html=1;" edge="1" parent="1" source="A_EFe26jHxkVhjVEouuX-7" target="rkaj9FJLYy9ZAXitsgkI-18">
          <mxGeometry relative="1" as="geometry" />
        </mxCell>
        <mxCell id="A_EFe26jHxkVhjVEouuX-7" value="What is the game" style="square;whiteSpace=wrap;html=1;" parent="1" vertex="1">
          <mxGeometry x="360" y="250" width="120" height="50" as="geometry" />
        </mxCell>
        <mxCell id="A_EFe26jHxkVhjVEouuX-8" value="" style="endArrow=classic;html=1;exitX=1;exitY=1;exitDx=0;exitDy=0;entryX=0;entryY=0;entryDx=0;entryDy=0;" parent="1" source="A_EFe26jHxkVhjVEouuX-1" target="A_EFe26jHxkVhjVEouuX-9" edge="1">
          <mxGeometry width="50" height="50" relative="1" as="geometry">
            <mxPoint x="400" y="420" as="sourcePoint" />
            <mxPoint x="470" y="170" as="targetPoint" />
          </mxGeometry>
        </mxCell>
        <mxCell id="rkaj9FJLYy9ZAXitsgkI-23" value="" style="edgeStyle=orthogonalEdgeStyle;curved=0;rounded=1;sketch=0;orthogonalLoop=1;jettySize=auto;html=1;" edge="1" parent="1" source="A_EFe26jHxkVhjVEouuX-9" target="rkaj9FJLYy9ZAXitsgkI-22">
          <mxGeometry relative="1" as="geometry" />
        </mxCell>
        <mxCell id="A_EFe26jHxkVhjVEouuX-9" value="What tools do we need" style="square;whiteSpace=wrap;html=1;" parent="1" vertex="1">
          <mxGeometry x="520" y="140" width="120" height="50" as="geometry" />
        </mxCell>
        <mxCell id="A_EFe26jHxkVhjVEouuX-10" value="" style="endArrow=classic;html=1;exitX=1;exitY=0.5;exitDx=0;exitDy=0;entryX=0;entryY=1;entryDx=0;entryDy=0;" parent="1" source="A_EFe26jHxkVhjVEouuX-1" target="A_EFe26jHxkVhjVEouuX-11" edge="1">
          <mxGeometry width="50" height="50" relative="1" as="geometry">
            <mxPoint x="400" y="420" as="sourcePoint" />
            <mxPoint x="590" y="170" as="targetPoint" />
          </mxGeometry>
        </mxCell>
        <mxCell id="rkaj9FJLYy9ZAXitsgkI-17" value="" style="edgeStyle=orthogonalEdgeStyle;curved=0;rounded=1;sketch=0;orthogonalLoop=1;jettySize=auto;html=1;" edge="1" parent="1" source="A_EFe26jHxkVhjVEouuX-11" target="rkaj9FJLYy9ZAXitsgkI-16">
          <mxGeometry relative="1" as="geometry" />
        </mxCell>
        <mxCell id="A_EFe26jHxkVhjVEouuX-11" value="&lt;div&gt;Learn Kotlin&lt;/div&gt;" style="square;whiteSpace=wrap;html=1;" parent="1" vertex="1">
          <mxGeometry x="730" width="120" height="40" as="geometry" />
        </mxCell>
        <mxCell id="A_EFe26jHxkVhjVEouuX-13" value="game name?" style="square;whiteSpace=wrap;html=1;" parent="1" vertex="1">
          <mxGeometry x="510" y="360" width="90" height="40" as="geometry" />
        </mxCell>
        <mxCell id="A_EFe26jHxkVhjVEouuX-14" value="" style="endArrow=classic;html=1;exitX=0;exitY=1;exitDx=0;exitDy=0;entryX=1;entryY=0;entryDx=0;entryDy=0;" parent="1" source="A_EFe26jHxkVhjVEouuX-7" target="rkaj9FJLYy9ZAXitsgkI-26" edge="1">
          <mxGeometry width="50" height="50" relative="1" as="geometry">
            <mxPoint x="400" y="420" as="sourcePoint" />
            <mxPoint x="330" y="360" as="targetPoint" />
          </mxGeometry>
        </mxCell>
        <UserObject label="%date{ddd mmm dd yyyy HH:MM:ss}%" placeholders="1" id="__gFQp-27cVtTYfEqAuZ-8">
          <mxCell style="text;html=1;align=center;verticalAlign=middle;whiteSpace=wrap;overflow=hidden;" parent="1" vertex="1">
            <mxGeometry x="340" width="160" height="20" as="geometry" />
          </mxCell>
        </UserObject>
        <mxCell id="rkaj9FJLYy9ZAXitsgkI-15" value="" style="endArrow=classic;html=1;exitX=1;exitY=1;exitDx=0;exitDy=0;entryX=0;entryY=0;entryDx=0;entryDy=0;" edge="1" parent="1" source="A_EFe26jHxkVhjVEouuX-7" target="A_EFe26jHxkVhjVEouuX-13">
          <mxGeometry width="50" height="50" relative="1" as="geometry">
            <mxPoint x="380" y="270" as="sourcePoint" />
            <mxPoint x="430" y="220" as="targetPoint" />
          </mxGeometry>
        </mxCell>
        <UserObject label="Codecademy course" link="https://www.codecademy.com/learn/learn-kotlin" id="rkaj9FJLYy9ZAXitsgkI-16">
          <mxCell style="square;whiteSpace=wrap;html=1;" vertex="1" parent="1">
            <mxGeometry x="690" y="80" width="120" height="40" as="geometry" />
          </mxCell>
        </UserObject>
        <mxCell id="rkaj9FJLYy9ZAXitsgkI-18" value="type of game?" style="whiteSpace=wrap;html=1;" vertex="1" parent="1">
          <mxGeometry x="380" y="375" width="80" height="35" as="geometry" />
        </mxCell>
        <mxCell id="rkaj9FJLYy9ZAXitsgkI-20" value="publishers?" style="whiteSpace=wrap;html=1;" vertex="1" parent="1">
          <mxGeometry x="-100" y="180" width="80" height="44" as="geometry" />
        </mxCell>
        <mxCell id="rkaj9FJLYy9ZAXitsgkI-22" value="Unity" style="ellipse;whiteSpace=wrap;html=1;" vertex="1" parent="1">
          <mxGeometry x="670" y="212" width="80" height="50" as="geometry" />
        </mxCell>
        <mxCell id="rkaj9FJLYy9ZAXitsgkI-24" value="advertising" style="whiteSpace=wrap;html=1;" vertex="1" parent="1">
          <mxGeometry x="-100" y="100" width="80" height="40" as="geometry" />
        </mxCell>
        <mxCell id="rkaj9FJLYy9ZAXitsgkI-26" value="&lt;div&gt;Characters&lt;/div&gt;" style="shape=table;html=1;whiteSpace=wrap;startSize=30;container=1;collapsible=0;childLayout=tableLayout;fontStyle=1;align=center;rounded=0;sketch=0;" vertex="1" parent="1">
          <mxGeometry x="171" y="370" width="180" height="150" as="geometry" />
        </mxCell>
        <mxCell id="rkaj9FJLYy9ZAXitsgkI-27" value="" style="shape=partialRectangle;html=1;whiteSpace=wrap;collapsible=0;dropTarget=0;pointerEvents=0;fillColor=none;top=0;left=0;bottom=0;right=0;points=[[0,0.5],[1,0.5]];portConstraint=eastwest;" vertex="1" parent="rkaj9FJLYy9ZAXitsgkI-26">
          <mxGeometry y="30" width="180" height="40" as="geometry" />
        </mxCell>
        <mxCell id="rkaj9FJLYy9ZAXitsgkI-28" value="name1" style="shape=partialRectangle;html=1;whiteSpace=wrap;connectable=0;fillColor=none;top=0;left=0;bottom=0;right=0;overflow=hidden;" vertex="1" parent="rkaj9FJLYy9ZAXitsgkI-27">
          <mxGeometry width="60" height="40" as="geometry" />
        </mxCell>
        <mxCell id="rkaj9FJLYy9ZAXitsgkI-29" value="name 2" style="shape=partialRectangle;html=1;whiteSpace=wrap;connectable=0;fillColor=none;top=0;left=0;bottom=0;right=0;overflow=hidden;" vertex="1" parent="rkaj9FJLYy9ZAXitsgkI-27">
          <mxGeometry x="60" width="60" height="40" as="geometry" />
        </mxCell>
        <mxCell id="rkaj9FJLYy9ZAXitsgkI-30" value="..." style="shape=partialRectangle;html=1;whiteSpace=wrap;connectable=0;fillColor=none;top=0;left=0;bottom=0;right=0;overflow=hidden;" vertex="1" parent="rkaj9FJLYy9ZAXitsgkI-27">
          <mxGeometry x="120" width="60" height="40" as="geometry" />
        </mxCell>
        <mxCell id="rkaj9FJLYy9ZAXitsgkI-31" value="" style="shape=partialRectangle;html=1;whiteSpace=wrap;collapsible=0;dropTarget=0;pointerEvents=0;fillColor=none;top=0;left=0;bottom=0;right=0;points=[[0,0.5],[1,0.5]];portConstraint=eastwest;" vertex="1" parent="rkaj9FJLYy9ZAXitsgkI-26">
          <mxGeometry y="70" width="180" height="40" as="geometry" />
        </mxCell>
        <mxCell id="rkaj9FJLYy9ZAXitsgkI-32" value="" style="shape=partialRectangle;html=1;whiteSpace=wrap;connectable=0;fillColor=none;top=0;left=0;bottom=0;right=0;overflow=hidden;" vertex="1" parent="rkaj9FJLYy9ZAXitsgkI-31">
          <mxGeometry width="60" height="40" as="geometry" />
        </mxCell>
        <mxCell id="rkaj9FJLYy9ZAXitsgkI-33" value="" style="shape=partialRectangle;html=1;whiteSpace=wrap;connectable=0;fillColor=none;top=0;left=0;bottom=0;right=0;overflow=hidden;" vertex="1" parent="rkaj9FJLYy9ZAXitsgkI-31">
          <mxGeometry x="60" width="60" height="40" as="geometry" />
        </mxCell>
        <mxCell id="rkaj9FJLYy9ZAXitsgkI-34" value="" style="shape=partialRectangle;html=1;whiteSpace=wrap;connectable=0;fillColor=none;top=0;left=0;bottom=0;right=0;overflow=hidden;" vertex="1" parent="rkaj9FJLYy9ZAXitsgkI-31">
          <mxGeometry x="120" width="60" height="40" as="geometry" />
        </mxCell>
        <mxCell id="rkaj9FJLYy9ZAXitsgkI-35" value="" style="shape=partialRectangle;html=1;whiteSpace=wrap;collapsible=0;dropTarget=0;pointerEvents=0;fillColor=none;top=0;left=0;bottom=0;right=0;points=[[0,0.5],[1,0.5]];portConstraint=eastwest;" vertex="1" parent="rkaj9FJLYy9ZAXitsgkI-26">
          <mxGeometry y="110" width="180" height="40" as="geometry" />
        </mxCell>
        <mxCell id="rkaj9FJLYy9ZAXitsgkI-36" value="" style="shape=partialRectangle;html=1;whiteSpace=wrap;connectable=0;fillColor=none;top=0;left=0;bottom=0;right=0;overflow=hidden;" vertex="1" parent="rkaj9FJLYy9ZAXitsgkI-35">
          <mxGeometry width="60" height="40" as="geometry" />
        </mxCell>
        <mxCell id="rkaj9FJLYy9ZAXitsgkI-37" value="" style="shape=partialRectangle;html=1;whiteSpace=wrap;connectable=0;fillColor=none;top=0;left=0;bottom=0;right=0;overflow=hidden;" vertex="1" parent="rkaj9FJLYy9ZAXitsgkI-35">
          <mxGeometry x="60" width="60" height="40" as="geometry" />
        </mxCell>
        <mxCell id="rkaj9FJLYy9ZAXitsgkI-38" value="" style="shape=partialRectangle;html=1;whiteSpace=wrap;connectable=0;fillColor=none;top=0;left=0;bottom=0;right=0;overflow=hidden;" vertex="1" parent="rkaj9FJLYy9ZAXitsgkI-35">
          <mxGeometry x="120" width="60" height="40" as="geometry" />
        </mxCell>
      </root>
    </mxGraphModel>
  </diagram>
  <diagram name="Mike" id="-5ZuO66i7VHEPqibrBUk">
    <mxGraphModel dx="1422" dy="762" grid="1" gridSize="10" guides="1" tooltips="1" connect="1" arrows="1" fold="1" page="1" pageScale="1" pageWidth="850" pageHeight="1100" background="#182E3E" math="0" shadow="0">
      <root>
        <mxCell id="HEBn-ZwIGKUZ-xFCiAPG-0" />
        <mxCell id="HEBn-ZwIGKUZ-xFCiAPG-1" parent="HEBn-ZwIGKUZ-xFCiAPG-0" />
        <mxCell id="HEBn-ZwIGKUZ-xFCiAPG-2" value="&lt;div&gt;Develop a Game&lt;/div&gt;" style="ellipse;whiteSpace=wrap;html=1;fillColor=#EEEEEE;strokeColor=#FFFFFF;fontColor=#1A1A1A;" vertex="1" parent="HEBn-ZwIGKUZ-xFCiAPG-1">
          <mxGeometry x="360" y="30" width="120" height="50" as="geometry" />
        </mxCell>
        <mxCell id="HEBn-ZwIGKUZ-xFCiAPG-3" value="" style="endArrow=classic;html=1;exitX=0;exitY=0.5;exitDx=0;exitDy=0;labelBackgroundColor=#182E3E;strokeColor=#FFFFFF;fontColor=#FFFFFF;" edge="1" parent="HEBn-ZwIGKUZ-xFCiAPG-1" source="HEBn-ZwIGKUZ-xFCiAPG-2" target="HEBn-ZwIGKUZ-xFCiAPG-4">
          <mxGeometry width="50" height="50" relative="1" as="geometry">
            <mxPoint x="320" y="70" as="sourcePoint" />
            <mxPoint x="260" y="180" as="targetPoint" />
          </mxGeometry>
        </mxCell>
        <mxCell id="HEBn-ZwIGKUZ-xFCiAPG-4" value="Learn in/outs of github" style="ellipse;whiteSpace=wrap;html=1;fillColor=#EEEEEE;strokeColor=#FFFFFF;fontColor=#1A1A1A;" vertex="1" parent="HEBn-ZwIGKUZ-xFCiAPG-1">
          <mxGeometry width="120" height="50" as="geometry" />
        </mxCell>
        <mxCell id="HEBn-ZwIGKUZ-xFCiAPG-5" value="" style="endArrow=classic;html=1;exitX=0;exitY=1;exitDx=0;exitDy=0;entryX=0.583;entryY=0;entryDx=0;entryDy=0;entryPerimeter=0;labelBackgroundColor=#182E3E;strokeColor=#FFFFFF;fontColor=#FFFFFF;" edge="1" parent="HEBn-ZwIGKUZ-xFCiAPG-1" source="HEBn-ZwIGKUZ-xFCiAPG-2" target="HEBn-ZwIGKUZ-xFCiAPG-6">
          <mxGeometry width="50" height="50" relative="1" as="geometry">
            <mxPoint x="330" y="120" as="sourcePoint" />
            <mxPoint x="340" y="190" as="targetPoint" />
          </mxGeometry>
        </mxCell>
        <mxCell id="HEBn-ZwIGKUZ-xFCiAPG-6" value="How to deploy game" style="ellipse;whiteSpace=wrap;html=1;fillColor=#EEEEEE;strokeColor=#FFFFFF;fontColor=#1A1A1A;" vertex="1" parent="HEBn-ZwIGKUZ-xFCiAPG-1">
          <mxGeometry x="190" y="150" width="120" height="60" as="geometry" />
        </mxCell>
        <mxCell id="HEBn-ZwIGKUZ-xFCiAPG-7" value="" style="endArrow=classic;html=1;exitX=0.5;exitY=1;exitDx=0;exitDy=0;labelBackgroundColor=#182E3E;strokeColor=#FFFFFF;fontColor=#FFFFFF;" edge="1" parent="HEBn-ZwIGKUZ-xFCiAPG-1" source="HEBn-ZwIGKUZ-xFCiAPG-2" target="HEBn-ZwIGKUZ-xFCiAPG-8">
          <mxGeometry width="50" height="50" relative="1" as="geometry">
            <mxPoint x="400" y="420" as="sourcePoint" />
            <mxPoint x="420" y="270" as="targetPoint" />
          </mxGeometry>
        </mxCell>
        <mxCell id="HEBn-ZwIGKUZ-xFCiAPG-8" value="What is the game" style="ellipse;whiteSpace=wrap;html=1;fillColor=#EEEEEE;strokeColor=#FFFFFF;fontColor=#1A1A1A;" vertex="1" parent="HEBn-ZwIGKUZ-xFCiAPG-1">
          <mxGeometry x="360" y="250" width="120" height="50" as="geometry" />
        </mxCell>
        <mxCell id="HEBn-ZwIGKUZ-xFCiAPG-9" value="" style="endArrow=classic;html=1;exitX=1;exitY=1;exitDx=0;exitDy=0;labelBackgroundColor=#182E3E;strokeColor=#FFFFFF;fontColor=#FFFFFF;" edge="1" parent="HEBn-ZwIGKUZ-xFCiAPG-1" source="HEBn-ZwIGKUZ-xFCiAPG-2" target="HEBn-ZwIGKUZ-xFCiAPG-10">
          <mxGeometry width="50" height="50" relative="1" as="geometry">
            <mxPoint x="400" y="420" as="sourcePoint" />
            <mxPoint x="470" y="170" as="targetPoint" />
          </mxGeometry>
        </mxCell>
        <mxCell id="HEBn-ZwIGKUZ-xFCiAPG-10" value="What tools do we need" style="ellipse;whiteSpace=wrap;html=1;fillColor=#EEEEEE;strokeColor=#FFFFFF;fontColor=#1A1A1A;" vertex="1" parent="HEBn-ZwIGKUZ-xFCiAPG-1">
          <mxGeometry x="520" y="120" width="120" height="50" as="geometry" />
        </mxCell>
        <mxCell id="HEBn-ZwIGKUZ-xFCiAPG-11" value="" style="endArrow=classic;html=1;exitX=1;exitY=0.5;exitDx=0;exitDy=0;labelBackgroundColor=#182E3E;strokeColor=#FFFFFF;fontColor=#FFFFFF;" edge="1" parent="HEBn-ZwIGKUZ-xFCiAPG-1" source="HEBn-ZwIGKUZ-xFCiAPG-2" target="HEBn-ZwIGKUZ-xFCiAPG-12">
          <mxGeometry width="50" height="50" relative="1" as="geometry">
            <mxPoint x="400" y="420" as="sourcePoint" />
            <mxPoint x="590" y="170" as="targetPoint" />
          </mxGeometry>
        </mxCell>
        <mxCell id="HEBn-ZwIGKUZ-xFCiAPG-12" value="&lt;div&gt;Learn Kotlin&lt;/div&gt;" style="ellipse;whiteSpace=wrap;html=1;fillColor=#EEEEEE;strokeColor=#FFFFFF;fontColor=#1A1A1A;" vertex="1" parent="HEBn-ZwIGKUZ-xFCiAPG-1">
          <mxGeometry x="730" width="120" height="40" as="geometry" />
        </mxCell>
        <mxCell id="HEBn-ZwIGKUZ-xFCiAPG-13" value="game name?" style="ellipse;whiteSpace=wrap;html=1;fillColor=#EEEEEE;strokeColor=#FFFFFF;fontColor=#1A1A1A;" vertex="1" parent="HEBn-ZwIGKUZ-xFCiAPG-1">
          <mxGeometry x="480" y="360" width="90" height="40" as="geometry" />
        </mxCell>
        <mxCell id="HEBn-ZwIGKUZ-xFCiAPG-14" value="" style="endArrow=classic;html=1;exitX=0;exitY=1;exitDx=0;exitDy=0;labelBackgroundColor=#182E3E;strokeColor=#FFFFFF;fontColor=#FFFFFF;" edge="1" parent="HEBn-ZwIGKUZ-xFCiAPG-1" source="HEBn-ZwIGKUZ-xFCiAPG-8" target="HEBn-ZwIGKUZ-xFCiAPG-15">
          <mxGeometry width="50" height="50" relative="1" as="geometry">
            <mxPoint x="400" y="420" as="sourcePoint" />
            <mxPoint x="330" y="380" as="targetPoint" />
          </mxGeometry>
        </mxCell>
        <mxCell id="HEBn-ZwIGKUZ-xFCiAPG-15" value="characters" style="ellipse;whiteSpace=wrap;html=1;fillColor=#EEEEEE;strokeColor=#FFFFFF;fontColor=#1A1A1A;" vertex="1" parent="HEBn-ZwIGKUZ-xFCiAPG-1">
          <mxGeometry x="280" y="360" width="80" height="40" as="geometry" />
        </mxCell>
        <UserObject label="%date{ddd mmm dd yyyy HH:MM:ss}%" placeholders="1" id="HEBn-ZwIGKUZ-xFCiAPG-16">
          <mxCell style="text;html=1;align=center;verticalAlign=middle;whiteSpace=wrap;overflow=hidden;fillColor=#f5f5f5;strokeColor=#666666;fontColor=#333333;" vertex="1" parent="HEBn-ZwIGKUZ-xFCiAPG-1">
            <mxGeometry x="340" width="160" height="20" as="geometry" />
          </mxCell>
        </UserObject>
        <mxCell id="HEBn-ZwIGKUZ-xFCiAPG-17" value="" style="endArrow=none;html=1;strokeColor=#FFFFFF;fontColor=#FFFFFF;exitX=0.222;exitY=0;exitDx=0;exitDy=0;exitPerimeter=0;entryX=1;entryY=1;entryDx=0;entryDy=0;" edge="1" parent="HEBn-ZwIGKUZ-xFCiAPG-1" source="HEBn-ZwIGKUZ-xFCiAPG-13" target="HEBn-ZwIGKUZ-xFCiAPG-8">
          <mxGeometry width="50" height="50" relative="1" as="geometry">
            <mxPoint x="400" y="290" as="sourcePoint" />
            <mxPoint x="450" y="240" as="targetPoint" />
          </mxGeometry>
        </mxCell>
      </root>
    </mxGraphModel>
  </diagram>
</mxfile>
